<?xml version="1.0" standalone="no"?>
<!DOCTYPE svg PUBLIC "-//W3C//DTD SVG 20010904//EN"
 "http://www.w3.org/TR/2001/REC-SVG-20010904/DTD/svg10.dtd">
<svg version="1.0" xmlns="http://www.w3.org/2000/svg"
 width="1216.000000pt" height="1280.000000pt" viewBox="0 0 1216.000000 1280.000000"
 preserveAspectRatio="xMidYMid meet">
<metadata>
Created by potrace 1.15, written by Peter Selinger 2001-2017
</metadata>
<g transform="translate(0.000000,1280.000000) scale(0.100000,-0.100000)"
fill="green" stroke="none">
<path d="M6950 12617 c-50 -172 -149 -489 -155 -495 -1 -1 -85 5 -186 14 -352
33 -896 23 -1269 -22 -1648 -202 -3141 -1069 -4137 -2405 -964 -1294 -1371
-2906 -1138 -4517 135 -929 491 -1823 1039 -2605 361 -515 822 -990 1331
-1371 537 -402 1113 -703 1740 -910 466 -153 888 -238 1430 -288 183 -17 767
-17 950 0 671 62 1215 189 1790 420 1025 411 1921 1098 2591 1985 1199 1587
1542 3667 918 5562 -629 1910 -2185 3400 -4118 3945 l-119 34 -20 50 c-45 111
-151 306 -214 396 -65 91 -315 355 -359 378 -20 11 -23 4 -74 -171z m-404
-1082 c21 -7 21 -9 -23 -118 -71 -177 -268 -730 -306 -863 -52 -178 -69 -266
-74 -396 -6 -127 5 -212 38 -288 22 -51 68 -120 79 -120 10 0 306 449 403 610
212 355 362 704 427 998 22 98 34 120 47 86 8 -20 -21 -169 -63 -322 -102
-373 -268 -711 -693 -1412 -218 -361 -372 -634 -461 -822 -36 -76 -67 -137
-70 -138 -3 0 -22 87 -43 193 -21 105 -73 359 -117 562 -44 204 -96 462 -117
574 -21 112 -39 197 -41 188 -4 -21 28 -309 98 -862 94 -742 115 -968 129
-1348 22 -583 -35 -1092 -171 -1517 -25 -79 -62 -177 -129 -348 l-9 -24 -68
38 c-265 146 -504 345 -681 569 -70 87 -161 219 -161 233 0 4 14 27 30 50 41
55 75 139 97 243 24 114 24 453 0 659 -23 184 -88 588 -122 749 -178 840 -644
1562 -1194 1850 -106 55 -125 61 -117 34 3 -10 10 -119 16 -243 8 -163 8 -350
1 -670 -18 -767 11 -1099 139 -1596 92 -356 193 -598 342 -815 160 -236 338
-367 510 -377 43 -3 78 -3 78 -1 0 2 -24 58 -54 125 -182 407 -272 777 -416
1704 -72 463 -128 754 -192 983 -16 60 -28 111 -25 113 6 6 65 -194 119 -406
27 -107 98 -440 158 -740 118 -592 157 -763 226 -1000 66 -225 134 -402 229
-595 206 -420 476 -731 846 -974 68 -44 133 -87 143 -94 18 -13 15 -23 -86
-223 -57 -115 -184 -357 -280 -539 -383 -720 -511 -1017 -623 -1440 -90 -338
-126 -764 -88 -1049 6 -47 5 -48 -18 -41 -13 4 -44 16 -68 26 -24 10 -47 19
-51 19 -4 0 -5 -22 -2 -49 4 -49 4 -49 -35 -70 l-40 -20 -20 22 c-11 12 -32
40 -45 62 -49 78 -80 83 -76 12 3 -40 2 -42 -24 -39 -36 4 -48 -19 -36 -71 11
-52 -1 -66 -70 -74 -46 -5 -56 -2 -102 27 -56 36 -69 64 -50 110 6 16 9 33 6
39 -11 18 -98 61 -123 61 -27 0 -27 8 -8 -120 6 -38 3 -50 -16 -74 -20 -25
-26 -28 -65 -22 -24 3 -46 1 -49 -4 -3 -5 2 -27 11 -49 9 -23 14 -48 10 -56
-9 -23 -55 -18 -121 15 -33 16 -68 30 -78 30 -10 0 -38 -14 -62 -31 -58 -42
-69 -36 -66 33 1 31 -2 59 -8 62 -20 13 -50 -14 -61 -53 -11 -43 -34 -69 -45
-51 -16 25 -22 5 -17 -60 5 -68 4 -70 -22 -80 -20 -7 -36 -6 -63 5 -54 23 -73
19 -84 -15 -6 -16 -13 -30 -16 -30 -3 0 -28 16 -54 35 -84 60 -103 47 -154
-100 -27 -80 -31 -102 -24 -131 l10 -34 3499 0 3499 0 10 34 c7 29 3 51 -24
131 -51 147 -70 160 -154 100 -26 -19 -51 -35 -54 -35 -3 0 -10 13 -16 30 -11
34 -30 38 -84 15 -27 -11 -43 -12 -63 -5 -26 10 -27 12 -22 80 5 65 -1 85 -17
60 -11 -18 -34 8 -45 51 -11 39 -41 66 -61 53 -7 -4 -10 -28 -7 -61 6 -69 -8
-77 -67 -34 -24 17 -52 31 -62 31 -10 0 -45 -14 -78 -30 -66 -33 -112 -38
-121 -15 -4 8 1 33 10 56 9 22 14 44 11 49 -3 5 -25 7 -49 4 -39 -6 -45 -3
-65 22 -19 24 -22 36 -17 69 21 126 21 125 -6 125 -26 0 -113 -43 -124 -61 -3
-6 0 -23 6 -39 19 -46 6 -74 -50 -110 -46 -29 -56 -32 -102 -27 -69 9 -83 23
-69 72 14 50 0 77 -37 73 -26 -3 -27 -1 -24 39 4 71 -27 66 -76 -12 -13 -22
-34 -50 -45 -62 l-20 -22 -40 20 c-39 21 -39 21 -35 71 5 42 3 49 -11 44 -9
-3 -51 -18 -94 -32 -89 -31 -129 -27 -135 15 -3 18 11 39 59 87 39 39 57 64
47 64 -8 0 -18 -9 -21 -19 -5 -21 -66 -39 -86 -26 -6 3 -11 40 -11 85 0 100
-10 114 -72 95 -25 -7 -44 -19 -46 -29 -2 -9 -7 -16 -12 -16 -12 0 -20 27 -21
68 -1 42 -13 80 -21 66 -3 -5 -13 -33 -22 -61 -10 -29 -22 -53 -28 -53 -6 0
-25 16 -42 36 l-32 37 -39 -21 c-22 -11 -61 -38 -86 -61 -55 -48 -63 -44 -81
45 -6 32 -12 61 -14 63 -2 2 -17 -2 -34 -9 -30 -12 -32 -11 -89 43 -32 31 -71
59 -86 63 -24 6 -33 2 -62 -29 -21 -24 -33 -47 -33 -65 0 -44 -9 -44 -58 -2
-25 22 -53 40 -63 40 -22 0 -32 -31 -24 -73 l6 -32 -20 23 c-46 53 -111 60
-111 12 0 -11 -18 -37 -41 -57 l-41 -37 7 -78 c7 -76 7 -78 -19 -89 -34 -16
-75 2 -121 52 l-35 39 0 -39 c0 -60 -17 -58 -35 3 -9 31 -21 59 -27 62 -16 10
-28 -18 -22 -53 7 -38 0 -40 -71 -21 -58 16 -74 4 -55 -42 7 -17 22 -37 33
-45 20 -14 19 -15 -24 -33 -54 -24 -83 -55 -76 -81 6 -23 -21 -36 -52 -26 -13
4 -17 12 -14 26 7 26 -22 57 -76 81 -43 18 -44 19 -24 33 11 8 26 28 33 45 19
46 3 58 -55 42 -71 -19 -78 -17 -71 21 6 35 -6 63 -22 53 -6 -3 -18 -31 -27
-62 -18 -61 -35 -63 -35 -4 l0 40 -41 -45 c-44 -47 -85 -63 -119 -45 -21 11
-22 17 -15 89 l7 77 -41 37 c-23 20 -41 46 -41 57 0 22 -27 40 -50 32 -8 -2
-30 -19 -49 -36 l-33 -31 7 32 c8 41 -2 73 -23 73 -8 0 -37 -18 -63 -40 -25
-21 -49 -36 -53 -33 -3 4 -6 19 -6 35 0 18 -12 41 -33 65 -29 31 -38 35 -62
29 -15 -4 -54 -32 -86 -63 -55 -52 -61 -55 -85 -45 -35 17 -42 15 -46 -10 -9
-52 -20 172 -14 275 23 385 115 745 326 1272 71 178 310 737 321 751 6 7 75
13 181 17 414 14 867 91 1258 213 l119 37 40 -36 c91 -82 212 -117 402 -117
310 0 658 122 999 351 246 164 503 415 675 659 430 611 539 1410 294 2154 -48
147 -169 416 -187 416 -4 0 -37 -61 -72 -135 -205 -438 -487 -933 -709 -1245
-326 -458 -593 -757 -1006 -1126 -268 -239 -396 -382 -456 -508 -30 -62 -56
-162 -46 -172 15 -16 372 107 562 194 688 314 1210 853 1490 1541 47 115 104
287 131 394 9 37 19 66 21 63 6 -6 -50 -224 -88 -343 -148 -463 -396 -864
-745 -1203 -332 -322 -722 -556 -1211 -723 -363 -125 -743 -197 -1188 -227
-143 -9 -385 -14 -385 -7 0 2 12 32 26 68 90 220 198 546 253 764 50 200 101
560 101 715 l0 57 98 94 c151 147 327 282 602 461 204 133 179 125 247 80 236
-159 616 -120 1077 110 229 115 405 238 580 408 299 290 470 641 508 1043 24
262 -34 562 -157 808 -31 61 -146 239 -154 239 -3 0 -24 -31 -45 -68 -154
-265 -319 -493 -470 -650 -134 -139 -149 -151 -757 -627 -299 -233 -363 -287
-479 -404 -188 -188 -280 -360 -280 -521 0 -38 4 -71 9 -74 9 -6 581 266 751
356 656 350 985 675 1172 1158 16 41 26 62 23 45 -10 -48 -74 -214 -111 -288
-167 -332 -442 -611 -864 -877 -187 -118 -321 -192 -780 -435 -384 -204 -683
-386 -875 -534 l-80 -62 -7 48 c-3 26 -7 84 -7 128 -1 107 -26 374 -53 570
-12 88 -22 174 -22 190 2 76 345 860 508 1159 l45 83 53 -8 c179 -25 375 67
579 270 326 327 563 832 609 1301 7 63 14 117 16 119 6 7 301 -98 462 -165
1214 -505 2228 -1458 2807 -2639 403 -823 590 -1710 554 -2632 -62 -1622 -828
-3107 -2124 -4118 -149 -116 -447 -315 -630 -420 -546 -314 -1181 -541 -1802
-644 -315 -52 -570 -73 -918 -73 -622 0 -1153 86 -1735 281 -816 274 -1520
711 -2130 1321 -844 844 -1377 1906 -1550 3087 -71 487 -71 1079 0 1566 206
1414 936 2663 2075 3552 157 123 484 339 665 440 689 384 1416 608 2205 680
155 14 897 14 941 0z"/>
</g>
</svg>
